<svg xmlns="http://www.w3.org/2000/svg" width="256" height="256" viewBox="0 0 100 100"><rect width="100" height="100" rx="50" fill="#e78e6e"></rect><path fill="#fff" d="M53.48 61.85L53.48 61.85Q52.91 62.26 51.97 62.59Q51.02 62.91 49.88 62.91L49.88 62.91Q48.56 62.91 47.54 62.50Q46.52 62.09 46.11 61.19L46.11 61.19Q41.68 52.01 38.48 44.38Q35.28 36.76 33.31 31.75L33.31 31.75L32.98 31.75Q32.74 37.90 32.45 43.19Q32.16 48.48 31.84 53.53Q31.51 58.57 31.18 63.73Q30.85 68.90 30.52 74.80L30.52 74.80Q30.03 74.97 29.25 75.13Q28.47 75.30 27.57 75.30L27.57 75.30Q25.77 75.30 25.03 74.56Q24.29 73.82 24.29 72.43L24.29 72.43Q24.29 71.61 24.42 68.90Q24.54 66.19 24.78 62.34Q25.03 58.49 25.32 53.81Q25.60 49.14 25.97 44.30Q26.34 39.46 26.71 34.79Q27.08 30.11 27.41 26.26L27.41 26.26Q28.06 25.69 29.29 25.19Q30.52 24.70 32.08 24.70L32.08 24.70Q35.85 24.70 37.33 27.74L37.33 27.74Q38.89 30.93 40.49 34.50Q42.09 38.07 43.69 41.76Q45.28 45.45 46.80 49.06Q48.32 52.66 49.71 55.94L49.71 55.94L50.04 55.94Q51.84 51.60 53.65 47.38Q55.45 43.15 57.17 39.22Q58.90 35.28 60.45 31.84Q62.01 28.39 63.24 25.52L63.24 25.52Q63.98 25.11 65.13 24.91Q66.28 24.70 67.26 24.70L67.26 24.70Q71.12 24.70 71.69 27.33L71.69 27.33Q72.02 28.80 72.43 32.21Q72.84 35.61 73.25 40.04Q73.66 44.46 74.03 49.55Q74.40 54.63 74.72 59.35Q75.05 64.06 75.30 68.04Q75.54 72.02 75.71 74.31L75.71 74.31Q74.23 75.30 72.26 75.30L72.26 75.30Q71.03 75.30 70.09 74.68Q69.15 74.07 68.98 72.43L68.98 72.43Q68.57 66.44 68.25 60.54Q67.92 54.63 67.63 49.30Q67.34 43.97 67.10 39.50Q66.85 35.03 66.69 31.92L66.69 31.92L66.36 31.92Q65.46 34.21 64.27 37.08Q63.08 39.95 61.48 43.56Q59.88 47.17 57.91 51.72Q55.95 56.27 53.48 61.85Z"></path></svg>